# xmcd CD database file
#
# Track frame offsets:
#	150
#	19531
#	41034
#	66639
#	95873
#	116279
#	137623
#	160611
#	170425
#	193787
#	206752
#	225839
#
# Disc length: 3318 seconds
#
# Revision: 0
# Processed by: cddbd v1.5.2PL0 Copyright (c) Steve Scherf et al.
# Submitted via: CDex 1.51
#
DISCID=9f0cf40c
DTITLE=John Zorn - O'o
DYEAR=2009
DGENRE=Jazz
TTITLE0=Miller's Crake
TTITLE1=Akiola
TTITLE2=Po'o'uli
TTITLE3=Little Bittern
TTITLE4=Mysterious Starling
TTITLE5=Laughing Owl
TTITLE6=Archaeopteryx
TTITLE7=Solitaire
TTITLE8=Piopio
TTITLE9=The Zapata Rail
TTITLE10=Kakawahie
TTITLE11=Magdelena
EXTD=YEAR: 2009
EXTT0=
EXTT1=
EXTT2=
EXTT3=
EXTT4=
EXTT5=
EXTT6=
EXTT7=
EXTT8=
EXTT9=
EXTT10=
EXTT11=
PLAYORDER=
